<svg width="141" height="141" viewBox="0 0 141 141" fill="none" xmlns="http://www.w3.org/2000/svg">
<circle cx="70.5" cy="70.5" r="70.5" fill="#1494FF"/>
<path d="M93.961 41.8016L92.8905 49.6167C90.107 49.4026 88.073 49.9736 86.7883 51.3296C85.5036 52.6856 84.7186 54.5056 84.4331 56.7894C84.1476 59.0733 84.0762 61.5356 84.219 64.1763H93.961V86.765H75.6545V59.894C75.6545 53.328 77.296 48.4034 80.5791 45.1204C83.9335 41.8373 88.3941 40.7311 93.961 41.8016ZM66.7689 41.8016L65.6983 49.6167C62.9149 49.4026 60.8808 49.9736 59.5962 51.3296C58.3115 52.6856 57.5264 54.5056 57.241 56.7894C56.9555 59.0733 56.8841 61.5356 57.0268 64.1763H66.7689V86.765H48.4624V59.894C48.4624 53.328 50.1039 48.4034 53.387 45.1204C56.7414 41.8373 61.202 40.7311 66.7689 41.8016Z" fill="white"/>
</svg>
