<svg width="251" height="43" viewBox="0 0 251 43" fill="none" xmlns="http://www.w3.org/2000/svg">
<path d="M22.7879 0L28.8154 13.586L44.4604 14.7619L32.5405 24.3344L36.1823 38.6472L22.7879 30.9773L9.3935 38.6472L13.0352 24.3344L1.11532 14.7619L16.7604 13.586L22.7879 0Z" fill="#FE8B75"/>
<path d="M74.0603 3.8147e-06L80.0878 13.586L95.7329 14.7619L83.813 24.3344L87.4547 38.6472L74.0603 30.9773L60.666 38.6472L64.3077 24.3344L52.3878 14.7619L68.0329 13.586L74.0603 3.8147e-06Z" fill="#FE8B75"/>
<path d="M125.334 3.8147e-06L131.362 13.586L147.007 14.7619L135.087 24.3344L138.729 38.6472L125.334 30.9773L111.94 38.6472L115.582 24.3344L103.662 14.7619L119.307 13.586L125.334 3.8147e-06Z" fill="#FE8B75"/>
<path d="M176.606 3.8147e-06L182.634 13.586L198.279 14.7619L186.359 24.3344L190.001 38.6472L176.606 30.9773L163.212 38.6472L166.854 24.3344L154.934 14.7619L170.579 13.586L176.606 3.8147e-06Z" fill="#FE8B75"/>
<path d="M227.879 3.8147e-06L233.906 13.586L249.551 14.7619L237.631 24.3344L241.273 38.6472L227.879 30.9773L214.484 38.6472L218.126 24.3344L206.206 14.7619L221.851 13.586L227.879 3.8147e-06Z" fill="#FE8B75"/>
</svg>
