<svg width="31" height="31" viewBox="0 0 31 31" fill="none" xmlns="http://www.w3.org/2000/svg">
<circle cx="15.0316" cy="15.0316" r="15.0316" fill="white"/>
<circle cx="15.0316" cy="15.0316" r="15.0316" fill="white"/>
<path d="M14.7264 17.3221C16.103 17.3221 17.2189 16.1879 17.2189 14.7887C17.2189 13.3896 16.103 12.2554 14.7264 12.2554C13.3498 12.2554 12.2339 13.3896 12.2339 14.7887C12.2339 16.1879 13.3498 17.3221 14.7264 17.3221Z" fill="#1494FF"/>
<path d="M18.1528 6.87183H11.2984C10.1416 6.87183 9.03211 7.33891 8.21409 8.17033C7.39608 9.00175 6.93652 10.1294 6.93652 11.3052V18.2719C6.93652 19.4478 7.39608 20.5754 8.21409 21.4068C9.03211 22.2382 10.1416 22.7053 11.2984 22.7053H18.1528C19.3097 22.7053 20.4191 22.2382 21.2371 21.4068C22.0552 20.5754 22.5147 19.4478 22.5147 18.2719V11.3052C22.5147 10.1294 22.0552 9.00175 21.2371 8.17033C20.4191 7.33891 19.3097 6.87183 18.1528 6.87183ZM14.7256 18.5886C13.9862 18.5886 13.2633 18.3657 12.6485 17.9482C12.0336 17.5306 11.5544 16.9372 11.2715 16.2428C10.9885 15.5484 10.9144 14.7844 11.0587 14.0472C11.203 13.3101 11.559 12.633 12.0819 12.1015C12.6048 11.5701 13.271 11.2082 13.9962 11.0616C14.7215 10.9149 15.4732 10.9902 16.1564 11.2778C16.8396 11.5654 17.4235 12.0525 17.8343 12.6774C18.2451 13.3023 18.4644 14.037 18.4644 14.7886C18.4644 15.7964 18.0705 16.763 17.3693 17.4756C16.6682 18.1883 15.7172 18.5886 14.7256 18.5886ZM18.7759 11.6219C18.5911 11.6219 18.4104 11.5662 18.2567 11.4618C18.103 11.3574 17.9832 11.209 17.9124 11.0354C17.8417 10.8618 17.8232 10.6708 17.8592 10.4865C17.8953 10.3022 17.9843 10.133 18.115 10.0001C18.2457 9.86725 18.4123 9.77677 18.5936 9.74011C18.7749 9.70345 18.9628 9.72227 19.1336 9.79417C19.3044 9.86608 19.4504 9.98784 19.5531 10.1441C19.6558 10.3003 19.7106 10.484 19.7106 10.6719C19.7106 10.9238 19.6122 11.1655 19.4369 11.3436C19.2616 11.5218 19.0238 11.6219 18.7759 11.6219Z" fill="#1494FF"/>
</svg>
