<svg width="31" height="31" viewBox="0 0 31 31" fill="none" xmlns="http://www.w3.org/2000/svg">
<circle cx="15.0316" cy="15.0316" r="15.0316" fill="white"/>
<circle cx="15.0316" cy="15.0316" r="15.0316" fill="white"/>
<path d="M14.6051 13.6653L11.8333 9.78687H10.355L13.7885 14.5909L14.2208 15.1952L17.1597 19.3108H18.638L15.0355 14.2696L14.6051 13.6653Z" fill="white"/>
<path d="M20.7453 7.03174H8.25469C7.56172 7.03174 7 7.59346 7 8.28643V20.7771C7 21.47 7.56172 22.0317 8.25469 22.0317H20.7453C21.4383 22.0317 22 21.47 22 20.7771V8.28643C22 7.59346 21.4383 7.03174 20.7453 7.03174ZM16.7059 19.9863L13.7315 15.7501L10.0078 19.9863H9.04545L13.3047 15.1422L9.04545 9.07719H12.2941L15.1101 13.0876L18.6384 9.07719H19.6007L15.5391 13.6969L19.9545 19.9863H16.7059Z" fill="#1494FF"/>
</svg>
