<svg width="31" height="31" viewBox="0 0 31 31" fill="none" xmlns="http://www.w3.org/2000/svg">
<circle cx="15.0316" cy="15.0316" r="15.0316" fill="white"/>
<circle cx="15.0316" cy="15.0316" r="15.0316" fill="white"/>
<path d="M23.2024 10.8899C23.0056 10.1533 22.4256 9.57338 21.6891 9.37653C20.354 9.0188 15.0012 9.0188 15.0012 9.0188C15.0012 9.0188 9.64837 9.0188 8.31332 9.37653C7.57693 9.57338 6.99683 10.1533 6.80001 10.8899C6.44238 12.2248 6.44238 15.0101 6.44238 15.0101C6.44238 15.0101 6.44238 17.7953 6.80001 19.1301C6.99683 19.8666 7.57693 20.4467 8.31332 20.6436C9.64837 21.0012 15.0012 21.0012 15.0012 21.0012C15.0012 21.0012 20.354 21.0012 21.6891 20.6436C22.4256 20.4467 23.0056 19.8666 23.2024 19.1301C23.56 17.7953 23.56 15.0101 23.56 15.0101C23.56 15.0101 23.56 12.2248 23.2024 10.8899ZM13.2893 17.5778V12.4424L17.7366 15.0101L13.2893 17.5778Z" fill="#1494FF"/>
</svg>
